<svg width="20" height="21" viewBox="0 0 20 21" fill="none" xmlns="http://www.w3.org/2000/svg">
<g clip-path="url(#clip0_1356_1828)">
<rect y="0.5" width="20" height="20" rx="10" fill="#0866FF"/>
<path d="M13.5056 14.1089L14.0185 11.2965H11.0332V10.3018C11.0332 8.81552 11.6122 8.24391 13.1108 8.24391C13.5763 8.24391 13.951 8.25532 14.1667 8.27818V5.72869C13.758 5.61435 12.7589 5.5 12.1799 5.5C9.12584 5.5 7.71802 6.95199 7.71802 10.0846V11.2965H5.83337V14.1089H7.71802V20.229C8.42517 20.4056 9.16456 20.5 9.92592 20.5C10.3008 20.5 10.6702 20.4767 11.0332 20.4326V14.1089H13.5056Z" fill="white"/>
</g>
<defs>
<clipPath id="clip0_1356_1828">
<rect y="0.5" width="20" height="20" rx="10" fill="white"/>
</clipPath>
</defs>
</svg>
