<svg width="20" height="20" viewBox="0 0 20 20" fill="none" xmlns="http://www.w3.org/2000/svg">
<g id="Google logo" clip-path="url(#clip0_783_3992)">
<g id="Group">
<g id="Clip path group">
<mask id="mask0_783_3992" style="mask-type:luminance" maskUnits="userSpaceOnUse" x="0" y="0" width="20" height="20">
<g id="B">
<path id="Vector" d="M19.6307 8.18182H10.3125V12.0455H15.6761C15.1761 14.5 13.0852 15.9091 10.3125 15.9091C7.03978 15.9091 4.40341 13.2727 4.40341 10C4.40341 6.72728 7.03978 4.09091 10.3125 4.09091C11.7216 4.09091 12.9943 4.59091 13.9943 5.40909L16.9034 2.5C15.1307 0.954546 12.858 0 10.3125 0C4.76705 0 0.3125 4.45455 0.3125 10C0.3125 15.5455 4.76705 20 10.3125 20C15.3125 20 19.858 16.3636 19.858 10C19.858 9.40909 19.7671 8.77273 19.6307 8.18182Z" fill="white"/>
</g>
</mask>
<g mask="url(#mask0_783_3992)">
<path id="Vector_2" d="M-0.596558 15.909V4.09082L7.13072 9.99991L-0.596558 15.909Z" fill="#FBBC05"/>
</g>
</g>
<g id="Clip path group_2">
<mask id="mask1_783_3992" style="mask-type:luminance" maskUnits="userSpaceOnUse" x="0" y="0" width="20" height="20">
<g id="B_2">
<path id="Vector_3" d="M19.6307 8.18182H10.3125V12.0455H15.6761C15.1761 14.5 13.0852 15.9091 10.3125 15.9091C7.03978 15.9091 4.40341 13.2727 4.40341 10C4.40341 6.72728 7.03978 4.09091 10.3125 4.09091C11.7216 4.09091 12.9943 4.59091 13.9943 5.40909L16.9034 2.5C15.1307 0.954546 12.858 0 10.3125 0C4.76705 0 0.3125 4.45455 0.3125 10C0.3125 15.5455 4.76705 20 10.3125 20C15.3125 20 19.858 16.3636 19.858 10C19.858 9.40909 19.7671 8.77273 19.6307 8.18182Z" fill="white"/>
</g>
</mask>
<g mask="url(#mask1_783_3992)">
<path id="Vector_4" d="M-0.596558 4.09082L7.13072 9.99992L10.3125 7.22719L21.2216 5.45446V-0.90918H-0.596558V4.09082Z" fill="#EA4335"/>
</g>
</g>
<g id="Clip path group_3">
<mask id="mask2_783_3992" style="mask-type:luminance" maskUnits="userSpaceOnUse" x="0" y="0" width="20" height="20">
<g id="B_3">
<path id="Vector_5" d="M19.6307 8.18182H10.3125V12.0455H15.6761C15.1761 14.5 13.0852 15.9091 10.3125 15.9091C7.03978 15.9091 4.40341 13.2727 4.40341 10C4.40341 6.72728 7.03978 4.09091 10.3125 4.09091C11.7216 4.09091 12.9943 4.59091 13.9943 5.40909L16.9034 2.5C15.1307 0.954546 12.858 0 10.3125 0C4.76705 0 0.3125 4.45455 0.3125 10C0.3125 15.5455 4.76705 20 10.3125 20C15.3125 20 19.858 16.3636 19.858 10C19.858 9.40909 19.7671 8.77273 19.6307 8.18182Z" fill="white"/>
</g>
</mask>
<g mask="url(#mask2_783_3992)">
<path id="Vector_6" d="M-0.596558 15.909L13.0398 5.45446L16.6307 5.909L21.2216 -0.90918V20.909H-0.596558V15.909Z" fill="#34A853"/>
</g>
</g>
<g id="Clip path group_4">
<mask id="mask3_783_3992" style="mask-type:luminance" maskUnits="userSpaceOnUse" x="0" y="0" width="20" height="20">
<g id="B_4">
<path id="Vector_7" d="M19.6307 8.18182H10.3125V12.0455H15.6761C15.1761 14.5 13.0852 15.9091 10.3125 15.9091C7.03978 15.9091 4.40341 13.2727 4.40341 10C4.40341 6.72728 7.03978 4.09091 10.3125 4.09091C11.7216 4.09091 12.9943 4.59091 13.9943 5.40909L16.9034 2.5C15.1307 0.954546 12.858 0 10.3125 0C4.76705 0 0.3125 4.45455 0.3125 10C0.3125 15.5455 4.76705 20 10.3125 20C15.3125 20 19.858 16.3636 19.858 10C19.858 9.40909 19.7671 8.77273 19.6307 8.18182Z" fill="white"/>
</g>
</mask>
<g mask="url(#mask3_783_3992)">
<path id="Vector_8" d="M21.2216 20.909L7.13068 9.99991L5.3125 8.63628L21.2216 4.09082V20.909Z" fill="#4285F4"/>
</g>
</g>
</g>
</g>
<defs>
<clipPath id="clip0_783_3992">
<rect width="20" height="20" fill="white"/>
</clipPath>
</defs>
</svg>
