<svg width="20" height="21" viewBox="0 0 20 21" fill="none" xmlns="http://www.w3.org/2000/svg">
<rect y="0.5" width="20" height="20" rx="10" fill="url(#paint0_linear_1356_1822)"/>
<path d="M13.5529 7.73468C13.1114 7.73554 12.7524 7.37805 12.7516 6.93654C12.7507 6.49503 13.1082 6.13603 13.5499 6.13517C13.9916 6.13431 14.3506 6.492 14.3515 6.93352C14.3521 7.37503 13.9946 7.73381 13.5529 7.73468Z" fill="white"/>
<path fill-rule="evenodd" clip-rule="evenodd" d="M10.0064 13.9229C8.1162 13.9266 6.58065 12.3973 6.57699 10.5066C6.57331 8.6164 8.10302 7.08061 9.99324 7.07694C11.8839 7.07327 13.4197 8.60344 13.4233 10.4935C13.427 12.3841 11.8969 13.9193 10.0064 13.9229ZM9.99562 8.27814C8.76874 8.2803 7.77556 9.27715 7.77772 10.5043C7.7801 11.7316 8.77716 12.7246 10.004 12.7222C11.2314 12.7198 12.2245 11.7232 12.2221 10.4958C12.2198 9.26851 11.2227 8.27576 9.99562 8.27814Z" fill="white"/>
<path fill-rule="evenodd" clip-rule="evenodd" d="M5.62182 4.19265C6.04519 4.02676 6.52967 3.91314 7.23902 3.87966C7.9501 3.84554 8.17711 3.83776 9.98719 3.8343C11.7977 3.83085 12.0247 3.83776 12.7358 3.86929C13.4454 3.89996 13.9301 4.01186 14.3543 4.17602C14.7932 4.34515 15.1656 4.57282 15.5367 4.9424C15.9078 5.31241 16.1363 5.68351 16.3076 6.12178C16.4733 6.54558 16.5869 7.02964 16.6206 7.73943C16.6543 8.45029 16.6625 8.67709 16.6659 10.4874C16.6694 12.2975 16.662 12.5248 16.6309 13.2363C16.6 13.9454 16.4884 14.4303 16.3242 14.8544C16.1546 15.2933 15.9274 15.6657 15.5578 16.0368C15.1883 16.4081 14.8167 16.6364 14.3785 16.8079C13.9547 16.9733 13.4706 17.087 12.7613 17.1209C12.0502 17.1546 11.8232 17.1626 10.0125 17.166C8.20259 17.1695 7.97558 17.1626 7.26451 17.1312C6.55494 17.1001 6.07002 16.9885 5.64601 16.8245C5.2071 16.6547 4.83472 16.4277 4.46363 16.0579C4.09232 15.6881 3.86359 15.3168 3.69252 14.8785C3.52663 14.455 3.41343 13.9707 3.37953 13.2615C3.34562 12.5502 3.33763 12.323 3.33417 10.5129C3.33071 8.70258 3.33784 8.47578 3.36894 7.76469C3.40026 7.05491 3.51151 6.5702 3.67567 6.14575C3.84522 5.70705 4.07245 5.33487 4.44247 4.96357C4.81204 4.59248 5.18356 4.36351 5.62182 4.19265ZM6.07867 15.7045C6.3139 15.795 6.66683 15.903 7.31679 15.9313C8.02008 15.9618 8.23067 15.9685 10.0103 15.965C11.7906 15.9618 12.0012 15.9542 12.7043 15.9212C13.3536 15.8903 13.7065 15.781 13.9411 15.6894C14.2523 15.5678 14.474 15.4224 14.7068 15.1894C14.9396 14.9554 15.0837 14.7332 15.2043 14.4219C15.295 14.1865 15.4028 13.8333 15.431 13.1833C15.4619 12.4805 15.4684 12.2697 15.465 10.4896C15.4617 8.70992 15.4542 8.49911 15.4207 7.79602C15.39 7.14649 15.2809 6.79354 15.1891 6.55918C15.0675 6.24749 14.9226 6.0263 14.6889 5.79324C14.4552 5.56017 14.2329 5.41652 13.9212 5.296C13.6864 5.20506 13.333 5.09749 12.6835 5.06919C11.9802 5.0383 11.7694 5.03204 9.98935 5.0355C8.20972 5.03895 7.99913 5.04608 7.29605 5.07935C6.64632 5.11023 6.2938 5.21931 6.05879 5.31112C5.74775 5.43272 5.52613 5.57723 5.29307 5.81116C5.06043 6.04509 4.91636 6.26693 4.79584 6.57884C4.70556 6.81385 4.5969 7.16723 4.56904 7.81676C4.53836 8.52006 4.53189 8.73088 4.53534 10.5105C4.53859 12.2906 4.54614 12.5014 4.57919 13.2041C4.60965 13.854 4.71959 14.2066 4.81096 14.4418C4.93257 14.7526 5.07751 14.9742 5.311 15.2073C5.54493 15.4395 5.7672 15.584 6.07867 15.7045Z" fill="white"/>
<defs>
<linearGradient id="paint0_linear_1356_1822" x1="6.66667" y1="0.5" x2="10" y2="20.5" gradientUnits="userSpaceOnUse">
<stop stop-color="#7B31F8"/>
<stop offset="0.337616" stop-color="#B504EE"/>
<stop offset="0.567302" stop-color="#F80873"/>
<stop offset="1" stop-color="#FED103"/>
</linearGradient>
</defs>
</svg>
