<svg width="100" height="36" viewBox="0 0 100 36" fill="none" xmlns="http://www.w3.org/2000/svg">
<path d="M47.8383 25.8194H34L34.4258 23.3612L45.7093 9.93392H37.087L37.5926 7H50.8987L50.4729 9.45815L39.1627 22.8855H48.3439L47.8383 25.8194Z" fill="#0A2838"/>
<path d="M54.0898 26.0837C51.3222 26.0837 49.5924 24.6564 49.5924 22.3568C49.5924 19.5551 51.402 18.2335 54.7285 17.9692L57.9486 17.6784C59.1195 17.5991 59.8913 17.2291 59.8913 16.1454C59.8913 15.0088 58.9598 14.348 57.576 14.348C55.8728 14.348 54.9946 15.0617 54.7285 16.489H51.3222C51.5883 13.5815 53.6108 11.9163 57.8421 11.9163C61.0888 11.9163 63.3242 13.2379 63.3242 15.8546C63.3242 16.1718 63.2976 16.5154 63.2178 16.859L62.2597 22.3304C62.0468 23.467 61.9404 24.3392 61.9404 24.9471C61.9404 25.3436 61.9936 25.6344 62.0734 25.8194H58.9598C58.7203 25.4758 58.6405 25.0793 58.6405 24.6828C58.6405 24.4714 58.6671 24.2335 58.7203 23.9427C57.6558 25.3436 56.3252 26.0837 54.0898 26.0837ZM55.2341 23.7577C57.3897 23.7577 58.8534 22.2775 59.1727 20.3216L59.359 19.2115C59.0929 19.5286 58.4808 19.6608 57.576 19.7401L55.5269 19.9251C53.8503 20.0573 53.0253 20.7445 53.0253 21.9604C53.0253 23.0705 53.8503 23.7577 55.2341 23.7577Z" fill="#0A2838"/>
<path d="M71.4877 26.0837C69.4119 26.0837 68.0281 25.185 67.4426 23.5198L66.112 31H62.6791L66.0056 12.1806H69.2789L68.9063 14.2687C69.8643 12.815 71.4078 11.9163 73.3771 11.9163C76.8367 11.9163 78.6197 14.348 78.6197 17.5198C78.6197 22.304 76.0117 26.0837 71.4877 26.0837ZM70.9288 23.4934C73.5634 23.4934 75.1867 20.9031 75.1867 17.7313C75.1867 15.6432 74.1755 14.5066 72.3925 14.5066C69.7579 14.5066 68.1345 17.0969 68.1345 20.2687C68.1345 22.3568 69.1458 23.4934 70.9288 23.4934Z" fill="#0A2838"/>
<path d="M82.1822 25.8194H78.7492L82.0757 7H85.5087L82.1822 25.8194Z" fill="#0A2838"/>
<path d="M83.3972 31L83.823 28.5683H85.2068C86.9632 28.5683 88.1607 27.4846 88.1607 25.8987C88.1607 25.6872 88.1341 25.4493 88.0809 25.2115L85.4729 12.1806H88.8793L90.5026 23.1762L96.0113 12.1806H99.7902L92.605 25.2115C90.1566 29.6256 88.1075 31 84.7544 31H83.3972Z" fill="#0A2838"/>
<g clip-path="url(#clip0_891_3784)">
<mask id="mask0_891_3784" style="mask-type:alpha" maskUnits="userSpaceOnUse" x="-6" y="-8" width="46" height="49">
<rect x="-5.64191" y="26.1594" width="42.203" height="23.953" transform="rotate(-51.9188 -5.64191 26.1594)" fill="url(#paint0_linear_891_3784)"/>
</mask>
<g mask="url(#mask0_891_3784)">
<path d="M15.0434 -18.9607L15.0322 44.1357" stroke="#0A2838" stroke-width="0.151261"/>
<line x1="-11.8124" y1="17.6294" x2="41.7216" y2="17.6294" stroke="#0A2838" stroke-width="0.151261"/>
<path d="M14.1783 -17.7802L17.2317 42.3974" stroke="#0A2838" stroke-width="0.151261"/>
<path d="M13.3134 -16.5997L19.2241 41.7716" stroke="#0A2838" stroke-width="0.151261"/>
<line x1="12.479" y1="-15.4238" x2="20.5855" y2="37.4929" stroke="#0A2838" stroke-width="0.151261"/>
<line x1="11.6134" y1="-14.2448" x2="22.3897" y2="38.1933" stroke="#0A2838" stroke-width="0.151261"/>
<line x1="10.7478" y1="-13.0658" x2="24.1662" y2="38.7592" stroke="#0A2838" stroke-width="0.151261"/>
<line x1="9.88167" y1="-11.8868" x2="25.9078" y2="39.1921" stroke="#0A2838" stroke-width="0.151261"/>
<line x1="9.01581" y1="-10.7077" x2="27.6084" y2="39.494" stroke="#0A2838" stroke-width="0.151261"/>
<line x1="8.14933" y1="-9.52836" x2="29.2608" y2="39.6671" stroke="#0A2838" stroke-width="0.151261"/>
<line x1="7.28299" y1="-8.3491" x2="30.859" y2="39.714" stroke="#0A2838" stroke-width="0.151261"/>
<line x1="6.41616" y1="-7.16976" x2="32.3963" y2="39.6375" stroke="#0A2838" stroke-width="0.151261"/>
<line x1="5.54917" y1="-5.99032" x2="33.8667" y2="39.441" stroke="#0A2838" stroke-width="0.151261"/>
<line x1="4.68231" y1="-4.81078" x2="35.2646" y2="39.128" stroke="#0A2838" stroke-width="0.151261"/>
<line x1="3.81506" y1="-3.63101" x2="36.5835" y2="38.7024" stroke="#0A2838" stroke-width="0.151261"/>
<line x1="2.94783" y1="-2.45124" x2="37.8184" y2="38.1681" stroke="#0A2838" stroke-width="0.151261"/>
<line x1="2.08039" y1="-1.27122" x2="38.9635" y2="37.5298" stroke="#0A2838" stroke-width="0.151261"/>
<line x1="1.21293" y1="-0.0913153" x2="40.014" y2="36.7918" stroke="#0A2838" stroke-width="0.151261"/>
<line x1="0.344918" y1="1.0891" x2="40.9643" y2="35.9597" stroke="#0A2838" stroke-width="0.151261"/>
<line x1="-0.522676" y1="2.26942" x2="41.8107" y2="35.0379" stroke="#0A2838" stroke-width="0.151261"/>
<line x1="-1.39082" y1="3.44977" x2="42.5479" y2="34.032" stroke="#0A2838" stroke-width="0.151261"/>
<line x1="-2.25876" y1="4.63052" x2="43.1726" y2="32.9481" stroke="#0A2838" stroke-width="0.151261"/>
<line x1="-3.12687" y1="5.81131" x2="43.6804" y2="31.7915" stroke="#0A2838" stroke-width="0.151261"/>
<line x1="-3.99514" y1="6.99228" x2="44.0679" y2="30.5683" stroke="#0A2838" stroke-width="0.151261"/>
<line x1="-4.86367" y1="8.17354" x2="44.3318" y2="29.285" stroke="#0A2838" stroke-width="0.151261"/>
<line x1="-5.73197" y1="9.35486" x2="44.4696" y2="27.9475" stroke="#0A2838" stroke-width="0.151261"/>
<line x1="-6.60065" y1="10.5364" x2="44.4782" y2="26.5625" stroke="#0A2838" stroke-width="0.151261"/>
<line x1="-7.46896" y1="11.718" x2="44.3561" y2="25.1365" stroke="#0A2838" stroke-width="0.151261"/>
<line x1="-8.33774" y1="12.9" x2="44.1004" y2="23.6764" stroke="#0A2838" stroke-width="0.151261"/>
<line x1="-9.2065" y1="14.0821" x2="43.7102" y2="22.1886" stroke="#0A2838" stroke-width="0.151261"/>
<line x1="-10.075" y1="15.2644" x2="43.1843" y2="20.6803" stroke="#0A2838" stroke-width="0.151261"/>
<line x1="-10.9439" y1="16.4468" x2="42.5214" y2="19.1583" stroke="#0A2838" stroke-width="0.151261"/>
</g>
</g>
<defs>
<linearGradient id="paint0_linear_891_3784" x1="15.4596" y1="26.1594" x2="15.4596" y2="50.1125" gradientUnits="userSpaceOnUse">
<stop stop-color="#D9D9D9" stop-opacity="0"/>
<stop offset="0.144231" stop-color="#D9D9D9"/>
<stop offset="0.817308" stop-color="#D9D9D9"/>
<stop offset="1" stop-color="#D9D9D9" stop-opacity="0"/>
</linearGradient>
<clipPath id="clip0_891_3784">
<rect width="30.4034" height="35.9499" fill="white" transform="translate(0.977234)"/>
</clipPath>
</defs>
</svg>
