<svg width="20" height="21" viewBox="0 0 20 21" fill="none" xmlns="http://www.w3.org/2000/svg">
<rect y="0.5" width="20" height="20" rx="10" fill="black"/>
<path d="M12.7814 10.3516C12.7314 10.3275 12.6805 10.3043 12.629 10.2821C12.5393 8.62287 11.636 7.67294 10.1193 7.66322C10.1124 7.66317 10.1055 7.66317 10.0987 7.66317C9.19147 7.66317 8.43696 8.05186 7.97256 8.75914L8.80672 9.33348C9.15365 8.80517 9.69811 8.69254 10.0991 8.69254C10.1037 8.69254 10.1084 8.69254 10.1129 8.69259C10.6123 8.69578 10.9892 8.84153 11.2331 9.12574C11.4106 9.33266 11.5293 9.6186 11.5881 9.97946C11.1453 9.90393 10.6665 9.8807 10.1546 9.91016C8.71251 9.99354 7.78545 10.8377 7.84771 12.0107C7.8793 12.6057 8.17462 13.1176 8.67923 13.4519C9.10587 13.7346 9.65535 13.8729 10.2264 13.8416C10.9806 13.8001 11.5722 13.5113 11.985 12.9832C12.2985 12.5821 12.4967 12.0624 12.5843 11.4075C12.9437 11.6253 13.2101 11.9118 13.3572 12.2562C13.6073 12.8416 13.6219 13.8037 12.8398 14.588C12.1546 15.2752 11.3309 15.5724 10.0861 15.5816C8.70521 15.5713 7.6609 15.1268 6.98192 14.2605C6.3461 13.4492 6.01751 12.2774 6.00525 10.7777C6.01751 9.27788 6.3461 8.1061 6.98192 7.29485C7.6609 6.42849 8.7052 5.98401 10.086 5.97371C11.4769 5.98408 12.5394 6.43071 13.2444 7.30125C13.5901 7.72815 13.8507 8.26501 14.0225 8.89097L15 8.62919C14.7917 7.85871 14.4641 7.19477 14.0181 6.64414C13.1143 5.52808 11.7925 4.95619 10.0894 4.94434H10.0826C8.38299 4.95615 7.07599 5.53021 6.19795 6.65054C5.41662 7.6475 5.01358 9.0347 5.00004 10.7736L5 10.7777L5.00004 10.7818C5.01358 12.5206 5.41662 13.9079 6.19795 14.9048C7.07599 16.0251 8.38299 16.5992 10.0826 16.611H10.0894C11.6005 16.6005 12.6656 16.2034 13.5431 15.3235C14.6911 14.1723 14.6565 12.7293 14.2781 11.8435C14.0067 11.2083 13.4891 10.6924 12.7814 10.3516ZM10.1724 12.8137C9.54042 12.8494 8.88381 12.5647 8.85144 11.9548C8.82744 11.5026 9.17206 10.998 10.2112 10.9379C10.3302 10.931 10.447 10.9276 10.5617 10.9276C10.9392 10.9276 11.2923 10.9644 11.6134 11.0349C11.4936 12.5359 10.7912 12.7796 10.1724 12.8137Z" fill="white"/>
</svg>
