<svg width="327" height="240" viewBox="0 0 327 240" fill="none" xmlns="http://www.w3.org/2000/svg">
<g filter="url(#filter0_d_3019_26198)">
<rect x="15.75" y="35.25" width="262.5" height="78.75" rx="6" fill="#FEFEFE" shape-rendering="crispEdges"/>
<rect x="28.125" y="49" width="35.25" height="19.25" rx="2.625" fill="#FEFEFE"/>
<rect x="28.125" y="49" width="35.25" height="19.25" rx="2.625" stroke="#EAECF0" stroke-width="0.75"/>
<path d="M40.8076 54.4971V62.3721H40.0166V54.4971H40.8076ZM39.1465 54.6992V61.9854H38.3555V58.3291H36.8174C36.3472 59.2432 35.6001 60.043 34.4883 60.6934L34.0137 60.0957C35.6836 59.1025 36.4878 57.7798 36.6328 56.1582H34.3828V55.4727H37.459C37.4546 56.2417 37.3491 56.9756 37.1074 57.6611H38.3555V54.6992H39.1465ZM44.71 56.501C44.7012 57.9424 45.5713 59.3838 46.793 59.9287L46.292 60.5879C45.3867 60.1572 44.6704 59.2739 44.3057 58.1973C43.9365 59.3486 43.2114 60.3022 42.2666 60.7637L41.7568 60.0605C42.9961 59.5068 43.8662 58.0039 43.8662 56.501V55.1562H44.71V56.501ZM48.3398 54.4971V62.3896H47.5049V54.4971H48.3398ZM55.8896 54.8311V55.3496C55.8896 55.8726 55.8896 56.5317 55.7227 57.3887H56.8037V58.0566H49.5967V57.3887H54.8877C55.0459 56.5889 55.0635 55.9868 55.0635 55.499H50.502V54.8311H55.8896ZM55.8984 58.7598V60.8252H51.2842V61.625H56.1006V62.293H50.4492V60.1836H55.0723V59.4277H50.4404V58.7598H55.8984Z" fill="#8D94A0"/>
<path d="M79.4795 52.3804V57.1265H81.312V58.3394H79.4795V64.2983H78.0293V52.3804H79.4795ZM77.1064 54.2129V55.3862H70.0796V54.2129H72.9009V52.5518H74.3643V54.2129H77.1064ZM73.6392 56.1641C75.353 56.1641 76.6318 57.3242 76.6318 58.9722C76.6318 60.6201 75.353 61.7671 73.6392 61.7671C71.8989 61.7671 70.6201 60.6201 70.6333 58.9722C70.6201 57.3242 71.8989 56.1641 73.6392 56.1641ZM73.6392 57.3638C72.7031 57.3638 72.0308 57.9966 72.0308 58.9722C72.0308 59.9478 72.7031 60.5674 73.6392 60.5542C74.5488 60.5674 75.2212 59.9478 75.2344 58.9722C75.2212 57.9966 74.5488 57.3638 73.6392 57.3638ZM92.9136 56.9814V58.1812H91.147V64.272H89.6836V52.3804H91.147V56.9814H92.9136ZM83.6851 53.5405V60.1191C85.2737 60.0928 86.9678 59.9543 88.7607 59.5786L88.9189 60.8179C86.915 61.2134 85.0034 61.332 83.2368 61.332H82.2349V53.5405H83.6851ZM97.3433 53.2109C99.2285 53.1978 100.613 54.3975 100.626 56.085C100.613 57.7856 99.2285 58.9722 97.3433 58.9722C95.4712 58.9722 94.0737 57.7856 94.0737 56.085C94.0737 54.3975 95.4712 53.1978 97.3433 53.2109ZM97.3433 54.4766C96.3018 54.4766 95.5239 55.0962 95.5239 56.085C95.5239 57.0869 96.3018 57.6934 97.3433 57.6934C98.3979 57.6934 99.189 57.0869 99.189 56.085C99.189 55.0962 98.3979 54.4766 97.3433 54.4766ZM103.408 52.3804V64.3115H101.944V52.3804H103.408ZM93.5332 60.6201C95.6821 60.6201 98.6616 60.5938 101.232 60.2246L101.351 61.2925C98.6748 61.8066 95.814 61.8198 93.7178 61.8198L93.5332 60.6201ZM117.936 52.8813V53.9624C117.923 55.1226 117.923 56.2959 117.593 57.9043L116.143 57.7856C116.268 57.2056 116.347 56.6782 116.394 56.1772L109.485 56.4805L109.301 55.2676L116.459 55.0962C116.473 54.7402 116.473 54.3975 116.473 54.0547H109.617V52.8813H117.936ZM119.188 58.5635V59.7368H108.378V58.5635H112.544V56.9946H114.007V58.5635H119.188ZM118.16 62.9272V64.1138H109.67V60.5674H111.133V62.9272H118.16ZM130.21 52.3936V61.2925H128.812V52.3936H130.21ZM127.863 52.6177V61.0024H126.466V56.8496H125.121V55.6763H126.466V52.6177H127.863ZM130.54 62.8745V64.061H122.3V60.3169H123.776V62.8745H130.54ZM125.055 53.3164V54.5029H121.931V55.8345H124.607V56.9551H121.931V58.3262C123.361 58.3196 124.343 58.28 125.503 58.0625L125.662 59.2227C124.291 59.4731 123.157 59.5259 121.311 59.5259H120.52V53.3164H125.055ZM142.576 61.6616V62.8613H131.687V61.6616H142.576ZM141.601 54.1338V55.3203H137.883C137.969 56.9221 139.511 58.3921 142.088 58.7744L141.521 59.9478C139.471 59.605 137.903 58.6228 137.118 57.2451C136.327 58.6228 134.765 59.605 132.715 59.9478L132.161 58.7744C134.725 58.3921 136.268 56.9221 136.38 55.3203H132.649V54.1338H136.393V52.6045H137.843V54.1338H141.601ZM154.244 61.7012V62.9141H143.354V61.7012H148.047V59.7632H144.646V55.8608H151.501V54.3843H144.62V53.1978H152.952V57.021H146.109V58.5635H153.229V59.7632H149.498V61.7012H154.244ZM161.481 53.2505C162.562 53.2505 163.452 53.8503 163.986 54.8984H166.768V52.3804H168.218V64.3115H166.768V59.8027H164.092C163.578 60.9893 162.635 61.6748 161.481 61.6748C159.688 61.6748 158.423 60.0532 158.423 57.4561C158.423 54.8853 159.688 53.2505 161.481 53.2505ZM161.481 54.5688C160.493 54.5688 159.82 55.6367 159.833 57.4561C159.82 59.2886 160.493 60.3564 161.481 60.3564C162.47 60.3564 163.129 59.2886 163.143 57.4561C163.129 55.6367 162.47 54.5688 161.481 54.5688ZM164.395 56.0981C164.481 56.5134 164.527 56.9683 164.527 57.4561C164.527 57.8713 164.494 58.2537 164.435 58.6162H166.768V56.0981H164.395ZM179.873 52.3804V64.3115H178.409V57.9702H176.366V56.7705H178.409V52.3804H179.873ZM175.68 53.4219V57.7856H171.778V60.2905C173.544 60.2839 174.975 60.2246 176.577 59.9346L176.695 61.1343C174.916 61.4507 173.333 61.5166 171.277 61.5166H170.328V56.5991H174.243V54.6084H170.288V53.4219H175.68ZM194.625 52.7231V53.8306H192.99V55.6367H194.559V56.7441H185.805V55.6367H187.374V53.8306H185.739V52.7231H194.625ZM195.627 57.4956V58.6558H184.764V57.4956H195.627ZM194.269 59.46V62.2944H187.493V63.0986H194.599V64.1929H186.056V61.2793H192.832V60.5278H186.042V59.46H194.269ZM188.837 55.6367H191.514V53.8306H188.837V55.6367ZM206.622 52.3936V60.4355H205.225V56.5464H203.985V59.4336H202.614V52.6177H203.985V55.3599H205.225V52.3936H206.622ZM201.454 53.2505V56.7705H198.356V58.1548C199.74 58.135 200.795 58.0559 202.008 57.8252L202.14 58.9722C200.716 59.2622 199.516 59.3018 197.75 59.3018H196.932V55.7026H200.043V54.437H196.919V53.2505H201.454ZM203.273 60.1455C203.273 61.5034 204.79 62.7822 207.202 63.0986L206.609 64.2324C204.743 63.9622 203.273 63.1184 202.548 61.9385C201.803 63.1184 200.333 63.9622 198.475 64.2324L197.881 63.0986C200.281 62.7822 201.797 61.5034 201.81 60.1455V59.895H203.273V60.1455ZM218.962 58.2339V59.394H208.099V58.2339H212.779V57.1396H209.14V55.9531H210.709V53.9097H209.074V52.7363H217.96V53.9097H216.325V55.9531H217.894V57.1396H214.242V58.2339H218.962ZM217.644 60.3301V64.1533H209.377V60.3301H217.644ZM210.828 61.4771V62.9668H216.22V61.4771H210.828ZM212.172 55.9531H214.849V53.9097H212.172V55.9531ZM230.049 52.3804V64.2983H228.639V52.3804H230.049ZM227.597 52.5913V63.7183H226.2V58.0493H225.066C224.927 60.3696 223.932 61.8066 222.456 61.7935C220.9 61.8066 219.885 60.1587 219.885 57.5352C219.885 54.9116 220.9 53.29 222.456 53.29C223.899 53.29 224.881 54.6348 225.053 56.8628H226.2V52.5913H227.597ZM222.456 54.6743C221.704 54.6611 221.229 55.6763 221.243 57.5352C221.229 59.394 221.704 60.4092 222.456 60.396C223.247 60.4092 223.721 59.394 223.721 57.5352C223.721 55.6763 223.247 54.6611 222.456 54.6743Z" fill="#0F1114"/>
<path d="M255.75 63.125L260.25 58.625L255.75 54.125" stroke="#BDC5D0" stroke-width="1.05" stroke-linecap="round"/>
<line x1="27.75" y1="75.75" x2="266.25" y2="75.75" stroke="#EAECF0" stroke-width="0.75"/>
<g clip-path="url(#clip0_3019_26198)">
<path fill-rule="evenodd" clip-rule="evenodd" d="M41.1876 92.125C41.1876 95.3181 38.5994 97.9062 35.4063 97.9062C32.2132 97.9062 29.6251 95.3181 29.6251 92.125C29.6251 88.9319 32.2132 86.3438 35.4063 86.3438C38.5994 86.3438 41.1876 88.9319 41.1876 92.125Z" stroke="#22C7FA" stroke-width="0.875" stroke-linecap="square"/>
<path d="M37.5514 93.9638L35.1951 92.5582V89.5288" stroke="#22C7FA" stroke-width="0.875" stroke-linecap="square"/>
</g>
<path d="M50.918 87.7539C53.168 87.7656 54.7969 88.8672 54.7969 90.543C54.7969 92.1191 53.4316 93.1562 51.4688 93.3203V95.3828H55.7461V96.3086H46.1367V95.3828H50.3672V93.3203C48.416 93.1562 47.0508 92.1191 47.0508 90.543C47.0508 88.8672 48.6797 87.7656 50.918 87.7539ZM50.918 88.668C49.3008 88.6562 48.1289 89.4062 48.1289 90.543C48.1289 91.7266 49.3008 92.4531 50.918 92.4648C52.5469 92.4531 53.7188 91.7266 53.7188 90.543C53.7188 89.4062 52.5469 88.6562 50.918 88.668ZM64.9805 89.5117V90.4141H57.7734V87.2734H58.8633V89.5117H64.9805ZM66.1055 91.3398V92.2305H56.4961V91.3398H66.1055ZM64.8984 93.0742V95.6406H58.8047V96.6133H65.2617V97.4922H57.6914V94.8203H63.7969V93.9414H57.668V93.0742H64.8984Z" fill="#22C7FA"/>
<path d="M73.4473 96.125L73.437 95.4482L75.9697 92.7822C76.8516 91.8491 77.272 91.3467 77.272 90.6597C77.272 89.9009 76.626 89.3984 75.7954 89.3984C74.9136 89.3984 74.3496 89.9624 74.3496 90.793H73.478C73.4678 89.4805 74.4829 88.5986 75.8262 88.5986C77.1694 88.5986 78.1333 89.501 78.1333 90.6597C78.1333 91.4902 77.7437 92.1362 76.4312 93.4897L74.729 95.2432V95.3047H78.2666V96.125H73.4473ZM82.0298 96.2275C80.6865 96.2275 79.6714 95.397 79.6201 94.2588H80.5122C80.584 94.9253 81.23 95.4175 82.0298 95.4175C82.9937 95.4175 83.6909 94.71 83.6909 93.7769C83.6909 92.813 82.9629 92.1055 81.9683 92.0952C81.3428 92.085 80.8608 92.2798 80.584 92.7617H79.6919L80.2148 88.7012H84.2344V89.5215H80.9839L80.707 91.6953H80.7788C81.1069 91.439 81.6094 91.2646 82.1323 91.2646C83.5474 91.2646 84.5933 92.3105 84.5933 93.7563C84.5933 95.1919 83.5063 96.2275 82.0298 96.2275ZM88.5308 88.3525L86.1313 97.2427H85.3315L87.7207 88.3525H88.5308ZM91.812 96.2275C90.1611 96.2275 89.2178 94.8433 89.2178 92.4131C89.2178 90.0034 90.1816 88.5986 91.812 88.5986C93.4424 88.5986 94.4062 90.0034 94.4062 92.4131C94.4062 94.8433 93.4526 96.2275 91.812 96.2275ZM91.812 95.4072C92.8784 95.4072 93.5039 94.3306 93.5039 92.4131C93.5039 90.4956 92.8784 89.3984 91.812 89.3984C90.7456 89.3984 90.1099 90.4956 90.1099 92.4131C90.1099 94.3306 90.7354 95.4072 91.812 95.4072ZM98.0566 96.2275C96.7134 96.2275 95.6982 95.397 95.647 94.2588H96.5391C96.6108 94.9253 97.2568 95.4175 98.0566 95.4175C99.0205 95.4175 99.7178 94.71 99.7178 93.7769C99.7178 92.813 98.9897 92.1055 97.9951 92.0952C97.3696 92.085 96.8877 92.2798 96.6108 92.7617H95.7188L96.2417 88.7012H100.261V89.5215H97.0107L96.7339 91.6953H96.8057C97.1338 91.439 97.6362 91.2646 98.1592 91.2646C99.5742 91.2646 100.62 92.3105 100.62 93.7563C100.62 95.1919 99.5332 96.2275 98.0566 96.2275ZM104.558 88.3525L102.158 97.2427H101.358L103.748 88.3525H104.558ZM105.409 96.125L105.398 95.4482L107.931 92.7822C108.813 91.8491 109.233 91.3467 109.233 90.6597C109.233 89.9009 108.587 89.3984 107.757 89.3984C106.875 89.3984 106.311 89.9624 106.311 90.793H105.439C105.429 89.4805 106.444 88.5986 107.788 88.5986C109.131 88.5986 110.095 89.501 110.095 90.6597C110.095 91.4902 109.705 92.1362 108.393 93.4897L106.69 95.2432V95.3047H110.228V96.125H105.409ZM111.571 96.125L111.561 95.4482L114.094 92.7822C114.976 91.8491 115.396 91.3467 115.396 90.6597C115.396 89.9009 114.75 89.3984 113.919 89.3984C113.038 89.3984 112.474 89.9624 112.474 90.793H111.602C111.592 89.4805 112.607 88.5986 113.95 88.5986C115.293 88.5986 116.257 89.501 116.257 90.6597C116.257 91.4902 115.868 92.1362 114.555 93.4897L112.853 95.2432V95.3047H116.391V96.125H111.571ZM124.194 88.4346C126.132 88.4448 127.526 89.3882 127.526 90.8237C127.526 92.1824 126.316 93.0847 124.583 93.1924V95.1099H128.388V95.7866H120.041V95.1099H123.794V93.1924C122.066 93.0796 120.861 92.1772 120.861 90.8237C120.861 89.3882 122.256 88.4448 124.194 88.4346ZM124.194 89.1011C122.717 89.1011 121.641 89.7983 121.641 90.8237C121.641 91.8799 122.717 92.5566 124.194 92.5669C125.67 92.5566 126.747 91.8799 126.747 90.8237C126.747 89.7983 125.67 89.1011 124.194 89.1011ZM136.939 88.8857V89.5522H129.546V88.8857H132.869V87.7886H133.658V88.8857H136.939ZM137.462 93.7461V94.4126H133.658V96.9761H132.869V94.4126H129.116V93.7461H137.462ZM133.269 90.0752C135.125 90.0752 136.242 90.6187 136.242 91.603C136.242 92.5669 135.125 93.1104 133.269 93.1206C131.402 93.1104 130.285 92.5669 130.295 91.603C130.285 90.6187 131.402 90.0752 133.269 90.0752ZM133.269 90.6904C131.905 90.6904 131.115 91.0288 131.125 91.603C131.115 92.167 131.905 92.4951 133.269 92.4951C134.612 92.4951 135.401 92.167 135.412 91.603C135.401 91.0288 134.612 90.6904 133.269 90.6904ZM140.969 94.6074V93.8486L144.312 88.7012H145.45V93.7974H146.486V94.6074H145.45V96.125H144.568V94.6074H140.969ZM141.964 93.7974H144.568V89.8701H144.476L141.964 93.7358V93.7974ZM148.342 95.1406C147.983 95.1406 147.675 94.8433 147.686 94.4741C147.675 94.1152 147.983 93.8179 148.342 93.8179C148.701 93.8179 148.998 94.1152 148.998 94.4741C148.998 94.8433 148.701 95.1406 148.342 95.1406ZM148.342 91.0186C147.983 91.0186 147.675 90.7212 147.686 90.3521C147.675 89.9932 147.983 89.6958 148.342 89.6958C148.701 89.6958 148.998 89.9932 148.998 90.3521C148.998 90.7212 148.701 91.0186 148.342 91.0186ZM152.802 96.2275C151.151 96.2275 150.208 94.8433 150.208 92.4131C150.208 90.0034 151.172 88.5986 152.802 88.5986C154.433 88.5986 155.396 90.0034 155.396 92.4131C155.396 94.8433 154.443 96.2275 152.802 96.2275ZM152.802 95.4072C153.869 95.4072 154.494 94.3306 154.494 92.4131C154.494 90.4956 153.869 89.3984 152.802 89.3984C151.736 89.3984 151.1 90.4956 151.1 92.4131C151.1 94.3306 151.726 95.4072 152.802 95.4072ZM159.057 96.2275C157.406 96.2275 156.463 94.8433 156.463 92.4131C156.463 90.0034 157.427 88.5986 159.057 88.5986C160.688 88.5986 161.651 90.0034 161.651 92.4131C161.651 94.8433 160.698 96.2275 159.057 96.2275ZM159.057 95.4072C160.124 95.4072 160.749 94.3306 160.749 92.4131C160.749 90.4956 160.124 89.3984 159.057 89.3984C157.991 89.3984 157.355 90.4956 157.355 92.4131C157.355 94.3306 157.98 95.4072 159.057 95.4072Z" fill="#8D94A0"/>
<rect x="227.25" y="84.625" width="15" height="15" rx="7.5" fill="url(#paint0_linear_3019_26198)"/>
<path d="M237.415 90.0509C237.084 90.0515 236.814 89.7834 236.814 89.4523C236.813 89.1212 237.081 88.8519 237.412 88.8513C237.744 88.8506 238.013 89.1189 238.014 89.45C238.014 89.7811 237.746 90.0502 237.415 90.0509Z" fill="#FEFEFE"/>
<path fill-rule="evenodd" clip-rule="evenodd" d="M234.755 94.6921C233.337 94.6948 232.185 93.5479 232.183 92.1299C232.18 90.7122 233.327 89.5603 234.745 89.5576C236.163 89.5548 237.315 90.7025 237.317 92.12C237.32 93.538 236.173 94.6893 234.755 94.6921ZM234.747 90.4585C233.827 90.4601 233.082 91.2077 233.083 92.1281C233.085 93.0486 233.833 93.7933 234.753 93.7915C235.674 93.7897 236.418 93.0423 236.417 92.1218C236.415 91.2013 235.667 90.4567 234.747 90.4585Z" fill="#FEFEFE"/>
<path fill-rule="evenodd" clip-rule="evenodd" d="M231.466 87.3944C231.784 87.2699 232.147 87.1847 232.679 87.1596C233.213 87.134 233.383 87.1282 234.74 87.1256C236.098 87.123 236.269 87.1282 236.802 87.1518C237.334 87.1749 237.698 87.2588 238.016 87.3819C238.345 87.5087 238.624 87.6795 238.903 87.9567C239.181 88.2342 239.352 88.5125 239.481 88.8412C239.605 89.1591 239.69 89.5221 239.715 90.0544C239.741 90.5876 239.747 90.7577 239.749 92.1154C239.752 93.473 239.747 93.6434 239.723 94.1771C239.7 94.7089 239.616 95.0726 239.493 95.3906C239.366 95.7198 239.196 95.9991 238.918 96.2774C238.641 96.5559 238.363 96.7272 238.034 96.8558C237.716 96.9799 237.353 97.0651 236.821 97.0905C236.288 97.1158 236.117 97.1218 234.759 97.1244C233.402 97.127 233.232 97.1218 232.698 97.0983C232.166 97.075 231.803 96.9912 231.485 96.8683C231.155 96.7409 230.876 96.5707 230.598 96.2933C230.319 96.016 230.148 95.7375 230.019 95.4088C229.895 95.0911 229.81 94.7279 229.785 94.196C229.759 93.6626 229.753 93.4921 229.751 92.1346C229.748 90.7768 229.753 90.6067 229.777 90.0734C229.8 89.5411 229.884 89.1775 230.007 88.8592C230.134 88.5302 230.304 88.251 230.582 87.9726C230.859 87.6942 231.138 87.5225 231.466 87.3944ZM231.809 96.0283C231.985 96.0962 232.25 96.1772 232.738 96.1984C233.265 96.2212 233.423 96.2263 234.758 96.2237C236.093 96.2212 236.251 96.2156 236.778 96.1908C237.265 96.1676 237.53 96.0856 237.706 96.0169C237.939 95.9257 238.105 95.8167 238.28 95.6419C238.455 95.4665 238.563 95.2998 238.653 95.0663C238.721 94.8897 238.802 94.6249 238.823 94.1374C238.846 93.6102 238.851 93.4521 238.849 92.1171C238.846 90.7823 238.841 90.6242 238.816 90.0969C238.793 89.6097 238.711 89.345 238.642 89.1693C238.551 88.9355 238.442 88.7696 238.267 88.5948C238.091 88.42 237.925 88.3123 237.691 88.2219C237.515 88.1537 237.25 88.073 236.763 88.0518C236.235 88.0286 236.077 88.0239 234.742 88.0265C233.407 88.0291 233.249 88.0344 232.722 88.0594C232.235 88.0825 231.97 88.1644 231.794 88.2332C231.561 88.3244 231.395 88.4328 231.22 88.6083C231.045 88.7837 230.937 88.9501 230.847 89.184C230.779 89.3603 230.698 89.6253 230.677 90.1124C230.654 90.6399 230.649 90.798 230.652 92.1328C230.654 93.4678 230.66 93.626 230.684 94.1529C230.707 94.6404 230.79 94.9048 230.858 95.0812C230.949 95.3143 231.058 95.4806 231.233 95.6554C231.409 95.8295 231.575 95.9379 231.809 96.0283Z" fill="#FEFEFE"/>
<rect x="239.25" y="84.625" width="15" height="15" rx="7.5" fill="#0F1114"/>
<path d="M248.836 92.014C248.799 91.9959 248.76 91.9785 248.722 91.9619C248.654 90.7174 247.977 90.0049 246.839 89.9977C246.834 89.9976 246.829 89.9976 246.824 89.9976C246.144 89.9976 245.578 90.2891 245.229 90.8196L245.855 91.2504C246.115 90.8541 246.524 90.7697 246.824 90.7697C246.828 90.7697 246.831 90.7697 246.835 90.7697C247.209 90.7721 247.492 90.8814 247.675 91.0946C247.808 91.2497 247.897 91.4642 247.941 91.7348C247.609 91.6782 247.25 91.6608 246.866 91.6829C245.784 91.7454 245.089 92.3785 245.136 93.2583C245.159 93.7045 245.381 94.0884 245.759 94.3392C246.079 94.5512 246.492 94.6549 246.92 94.6314C247.485 94.6003 247.929 94.3837 248.239 93.9876C248.474 93.6868 248.623 93.297 248.688 92.8059C248.958 92.9692 249.158 93.1841 249.268 93.4424C249.455 93.8815 249.466 94.603 248.88 95.1913C248.366 95.7066 247.748 95.9296 246.815 95.9364C245.779 95.9287 244.996 95.5954 244.486 94.9456C244.01 94.3372 243.763 93.4583 243.754 92.3335C243.763 91.2087 244.01 90.3298 244.486 89.7214C244.996 89.0716 245.779 88.7382 246.815 88.7305C247.858 88.7383 248.655 89.0733 249.183 89.7262C249.443 90.0464 249.638 90.449 249.767 90.9185L250.5 90.7221C250.344 90.1443 250.098 89.6463 249.764 89.2334C249.086 88.3963 248.094 87.9674 246.817 87.9585H246.812C245.537 87.9674 244.557 88.3979 243.898 89.2382C243.312 89.9859 243.01 91.0263 243 92.3304L243 92.3335L243 92.3366C243.01 93.6407 243.312 94.6811 243.898 95.4289C244.557 96.2691 245.537 96.6997 246.812 96.7085H246.817C247.95 96.7006 248.749 96.4028 249.407 95.7429C250.268 94.8795 250.242 93.7973 249.959 93.1329C249.755 92.6565 249.367 92.2695 248.836 92.014ZM246.879 93.8605C246.405 93.8873 245.913 93.6738 245.889 93.2163C245.871 92.8772 246.129 92.4987 246.908 92.4537C246.998 92.4485 247.085 92.446 247.171 92.446C247.454 92.446 247.719 92.4736 247.96 92.5264C247.87 93.6521 247.343 93.8349 246.879 93.8605Z" fill="#FEFEFE"/>
<g clip-path="url(#clip1_3019_26198)">
<rect x="251.25" y="84.625" width="15" height="15" rx="7.5" fill="#0866FF"/>
<path d="M261.379 94.8317L261.764 92.7223H259.525V91.9763C259.525 90.8616 259.959 90.4329 261.083 90.4329C261.432 90.4329 261.713 90.4415 261.875 90.4586V88.5465C261.568 88.4608 260.819 88.375 260.385 88.375C258.094 88.375 257.039 89.464 257.039 91.8134V92.7223H255.625V94.8317H257.039V99.4217C257.569 99.5542 258.123 99.625 258.694 99.625C258.976 99.625 259.253 99.6075 259.525 99.5744V94.8317H261.379Z" fill="#FEFEFE"/>
</g>
</g>
<g filter="url(#filter1_d_3019_26198)">
<rect x="48.75" y="126" width="262.5" height="78.75" rx="6" fill="#FEFEFE" shape-rendering="crispEdges"/>
<rect x="61.125" y="139.75" width="35.25" height="19.25" rx="2.625" fill="#FEFEFE"/>
<rect x="61.125" y="139.75" width="35.25" height="19.25" rx="2.625" stroke="#EAECF0" stroke-width="0.75"/>
<path d="M73.8076 145.247V153.122H73.0166V145.247H73.8076ZM72.1465 145.449V152.735H71.3555V149.079H69.8174C69.3472 149.993 68.6001 150.793 67.4883 151.443L67.0137 150.846C68.6836 149.853 69.4878 148.53 69.6328 146.908H67.3828V146.223H70.459C70.4546 146.992 70.3491 147.726 70.1074 148.411H71.3555V145.449H72.1465ZM77.71 147.251C77.7012 148.692 78.5713 150.134 79.793 150.679L79.292 151.338C78.3867 150.907 77.6704 150.024 77.3057 148.947C76.9365 150.099 76.2114 151.052 75.2666 151.514L74.7568 150.811C75.9961 150.257 76.8662 148.754 76.8662 147.251V145.906H77.71V147.251ZM81.3398 145.247V153.14H80.5049V145.247H81.3398ZM88.8896 145.581V146.1C88.8896 146.623 88.8896 147.282 88.7227 148.139H89.8037V148.807H82.5967V148.139H87.8877C88.0459 147.339 88.0635 146.737 88.0635 146.249H83.502V145.581H88.8896ZM88.8984 149.51V151.575H84.2842V152.375H89.1006V153.043H83.4492V150.934H88.0723V150.178H83.4404V149.51H88.8984Z" fill="#8D94A0"/>
<path d="M113.007 143.473V144.581H111.372V146.387H112.941V147.494H104.187V146.387H105.756V144.581H104.121V143.473H113.007ZM114.009 148.246V149.406H103.146V148.246H114.009ZM112.651 150.21V153.044H105.875V153.849H112.98V154.943H104.438V152.029H111.214V151.278H104.424V150.21H112.651ZM107.219 146.387H109.896V144.581H107.219V146.387ZM125.004 143.144V151.186H123.606V147.296H122.367V150.184H120.996V143.368H122.367V146.11H123.606V143.144H125.004ZM119.836 144V147.521H116.738V148.905C118.122 148.885 119.177 148.806 120.39 148.575L120.521 149.722C119.098 150.012 117.898 150.052 116.131 150.052H115.314V146.453H118.425V145.187H115.301V144H119.836ZM121.655 150.896C121.655 152.253 123.171 153.532 125.584 153.849L124.991 154.982C123.125 154.712 121.655 153.868 120.93 152.688C120.185 153.868 118.715 154.712 116.856 154.982L116.263 153.849C118.663 153.532 120.179 152.253 120.192 150.896V150.645H121.655V150.896ZM137.344 148.984V150.144H126.48V148.984H131.161V147.89H127.522V146.703H129.091V144.66H127.456V143.486H136.342V144.66H134.707V146.703H136.276V147.89H132.624V148.984H137.344ZM136.025 151.08V154.903H127.759V151.08H136.025ZM129.209 152.227V153.717H134.602V152.227H129.209ZM130.554 146.703H133.23V144.66H130.554V146.703ZM148.431 143.13V155.048H147.021V143.13H148.431ZM145.979 143.341V154.468H144.582V148.799H143.448C143.309 151.12 142.314 152.557 140.837 152.543C139.282 152.557 138.267 150.909 138.267 148.285C138.267 145.662 139.282 144.04 140.837 144.04C142.281 144.04 143.263 145.385 143.435 147.613H144.582V143.341H145.979ZM140.837 145.424C140.086 145.411 139.611 146.426 139.625 148.285C139.611 150.144 140.086 151.159 140.837 151.146C141.628 151.159 142.103 150.144 142.103 148.285C142.103 146.426 141.628 145.411 140.837 145.424ZM162.577 143.104V147.666H164.12V148.892H162.577V155.048H161.114V143.104H162.577ZM156.368 144.343V145.53H154.759V150.83C155.293 150.803 155.84 150.75 156.46 150.632L156.579 151.832C155.55 152.029 154.746 152.056 153.876 152.056H153.296V144.343H156.368ZM160.217 144.343V145.53H158.451V150.83C159.255 150.816 159.822 150.757 160.455 150.605L160.573 151.805C159.69 152.029 158.965 152.056 157.62 152.056H157.014V144.343H160.217ZM174.021 143.13V147.705H175.853V148.931H174.021V155.062H172.57V143.13H174.021ZM170.646 144.172V148.667H166.638V151.041C168.523 151.027 169.993 150.948 171.661 150.658L171.792 151.845C169.96 152.174 168.325 152.253 166.163 152.253H165.188V147.494H169.182V145.358H165.161V144.172H170.646ZM189.142 143.631V144.712C189.129 145.873 189.129 147.046 188.799 148.654L187.349 148.536C187.474 147.956 187.553 147.428 187.6 146.927L180.691 147.23L180.507 146.018L187.666 145.846C187.679 145.49 187.679 145.147 187.679 144.805H180.823V143.631H189.142ZM190.395 149.313V150.487H179.584V149.313H183.75V147.745H185.213V149.313H190.395ZM189.366 153.677V154.864H180.876V151.317H182.339V153.677H189.366ZM201.416 143.144V152.042H200.019V143.144H201.416ZM199.069 143.368V151.752H197.672V147.6H196.327V146.426H197.672V143.368H199.069ZM201.746 153.625V154.811H193.506V151.067H194.982V153.625H201.746ZM196.261 144.066V145.253H193.137V146.584H195.813V147.705H193.137V149.076C194.567 149.07 195.549 149.03 196.709 148.812L196.868 149.973C195.497 150.223 194.363 150.276 192.517 150.276H191.726V144.066H196.261ZM213.782 152.412V153.611H202.893V152.412H213.782ZM212.807 144.884V146.07H209.089C209.175 147.672 210.717 149.142 213.294 149.524L212.728 150.698C210.677 150.355 209.109 149.373 208.324 147.995C207.533 149.373 205.971 150.355 203.921 150.698L203.367 149.524C205.931 149.142 207.474 147.672 207.586 146.07H203.855V144.884H207.599V143.354H209.049V144.884H212.807ZM222.457 149.511V151.436C223.492 151.383 224.533 151.291 225.516 151.146L225.634 152.227C222.958 152.715 220.097 152.741 218.001 152.741L217.816 151.555C218.746 151.548 219.84 151.542 220.994 151.502V149.511H222.457ZM225.028 144.594V145.78H222.483C222.549 147.052 223.558 148.199 225.357 148.654L224.685 149.801C223.274 149.419 222.266 148.595 221.732 147.534C221.205 148.654 220.209 149.511 218.792 149.894L218.093 148.786C219.893 148.292 220.882 147.118 220.967 145.78H218.449V144.594H220.994V143.236H222.457V144.594H225.028ZM227.691 143.13V155.062H226.228V143.13H227.691ZM233.808 145.174C233.808 146.624 234.771 148.087 236.616 148.707L235.878 149.841C234.546 149.406 233.604 148.503 233.083 147.389C232.562 148.635 231.567 149.636 230.156 150.104L229.405 148.944C231.303 148.325 232.318 146.743 232.318 145.187V145.029H229.84V143.855H236.273V145.029H233.808V145.174ZM239.411 150.803V155.048H237.948V151.977H231.29V150.803H239.411ZM239.411 143.13V150.236H237.948V147.283H235.917V146.083H237.948V143.13H239.411ZM250.525 143.13V148.048H252.199V149.274H250.525V155.048H249.048V143.13H250.525ZM240.954 151.739C241.857 151.739 242.905 151.739 243.999 151.713V150.592C242.7 150.375 241.85 149.557 241.863 148.443C241.85 147.099 243.037 146.202 244.75 146.202C246.438 146.202 247.638 147.099 247.651 148.443C247.638 149.564 246.774 150.381 245.476 150.592V151.66C246.478 151.607 247.479 151.528 248.416 151.396L248.508 152.464C245.95 152.926 243.195 152.952 241.165 152.952L240.954 151.739ZM248.284 144.501V145.662H241.178V144.501H243.999V143.183H245.476V144.501H248.284ZM244.75 147.323C243.841 147.336 243.248 147.745 243.248 148.443C243.248 149.129 243.841 149.538 244.75 149.524C245.647 149.538 246.24 149.129 246.24 148.443C246.24 147.745 245.647 147.336 244.75 147.323Z" fill="#0F1114"/>
<path d="M288.75 153.875L293.25 149.375L288.75 144.875" stroke="#BDC5D0" stroke-width="1.05" stroke-linecap="round"/>
<line x1="60.75" y1="166.5" x2="299.25" y2="166.5" stroke="#EAECF0" stroke-width="0.75"/>
<g clip-path="url(#clip2_3019_26198)">
<path fill-rule="evenodd" clip-rule="evenodd" d="M74.1875 182.875C74.1875 186.068 71.5994 188.656 68.4062 188.656C65.2131 188.656 62.625 186.068 62.625 182.875C62.625 179.682 65.2131 177.094 68.4062 177.094C71.5994 177.094 74.1875 179.682 74.1875 182.875Z" stroke="#22C7FA" stroke-width="0.875" stroke-linecap="square"/>
<path d="M70.5513 184.714L68.1951 183.308V180.279" stroke="#22C7FA" stroke-width="0.875" stroke-linecap="square"/>
</g>
<path d="M79.5 187.375V186.438L82.4414 183.473C83.3672 182.5 83.8359 181.961 83.8359 181.223C83.8359 180.391 83.1562 179.852 82.2656 179.852C81.3281 179.852 80.7188 180.449 80.7188 181.352H79.5C79.4883 179.805 80.6719 178.773 82.2891 178.773C83.9297 178.773 85.0547 179.805 85.0664 181.188C85.0547 182.137 84.6094 182.887 83.0156 184.457L81.293 186.203V186.273H85.207V187.375H79.5ZM89.25 178.223C90.832 178.234 91.9922 179.207 92.0039 180.578C91.9922 181.961 90.832 182.922 89.25 182.922C87.6562 182.922 86.4844 181.961 86.4844 180.578C86.4844 179.207 87.6562 178.234 89.25 178.223ZM89.25 179.16C88.2773 179.148 87.5625 179.723 87.5742 180.578C87.5625 181.445 88.2773 182.02 89.25 182.02C90.2109 182.02 90.9258 181.445 90.9258 180.578C90.9258 179.723 90.2109 179.148 89.25 179.16ZM94.9805 177.871V183.215H93.8672V177.871H94.9805ZM94.9805 183.695V186.344H89.1914V187.352H95.332V188.242H88.1133V185.512H93.8789V184.586H88.0781V183.695H94.9805ZM108.609 179.031V179.945H100.066V179.031H103.805V177.824H104.906V179.031H108.609ZM109.184 184.668V185.582H104.906V188.383H103.805V185.582H99.5742V184.668H109.184ZM104.355 180.484C106.535 180.484 107.848 181.105 107.848 182.254C107.848 183.379 106.535 184 104.355 184.012C102.164 184 100.852 183.379 100.863 182.254C100.852 181.105 102.164 180.484 104.355 180.484ZM104.355 181.316C102.844 181.316 102.012 181.645 102.012 182.254C102.012 182.84 102.844 183.168 104.355 183.168C105.855 183.168 106.688 182.84 106.699 182.254C106.688 181.645 105.855 181.316 104.355 181.316Z" fill="#22C7FA"/>
<path d="M116.447 186.875L116.437 186.198L118.97 183.532C119.852 182.599 120.272 182.097 120.272 181.41C120.272 180.651 119.626 180.148 118.795 180.148C117.914 180.148 117.35 180.712 117.35 181.543H116.478C116.468 180.23 117.483 179.349 118.826 179.349C120.169 179.349 121.133 180.251 121.133 181.41C121.133 182.24 120.744 182.886 119.431 184.24L117.729 185.993V186.055H121.267V186.875H116.447ZM125.03 186.978C123.687 186.978 122.671 186.147 122.62 185.009H123.512C123.584 185.675 124.23 186.167 125.03 186.167C125.994 186.167 126.691 185.46 126.691 184.527C126.691 183.563 125.963 182.855 124.968 182.845C124.343 182.835 123.861 183.03 123.584 183.512H122.692L123.215 179.451H127.234V180.271H123.984L123.707 182.445H123.779C124.107 182.189 124.609 182.015 125.132 182.015C126.547 182.015 127.593 183.061 127.593 184.506C127.593 185.942 126.506 186.978 125.03 186.978ZM131.531 179.103L129.131 187.993H128.332L130.721 179.103H131.531ZM134.812 186.978C133.161 186.978 132.218 185.593 132.218 183.163C132.218 180.753 133.182 179.349 134.812 179.349C136.442 179.349 137.406 180.753 137.406 183.163C137.406 185.593 136.453 186.978 134.812 186.978ZM134.812 186.157C135.878 186.157 136.504 185.081 136.504 183.163C136.504 181.246 135.878 180.148 134.812 180.148C133.746 180.148 133.11 181.246 133.11 183.163C133.11 185.081 133.735 186.157 134.812 186.157ZM141.057 186.978C139.713 186.978 138.698 186.147 138.647 185.009H139.539C139.611 185.675 140.257 186.167 141.057 186.167C142.021 186.167 142.718 185.46 142.718 184.527C142.718 183.563 141.99 182.855 140.995 182.845C140.37 182.835 139.888 183.03 139.611 183.512H138.719L139.242 179.451H143.261V180.271H140.011L139.734 182.445H139.806C140.134 182.189 140.636 182.015 141.159 182.015C142.574 182.015 143.62 183.061 143.62 184.506C143.62 185.942 142.533 186.978 141.057 186.978ZM147.558 179.103L145.158 187.993H144.358L146.748 179.103H147.558ZM148.409 186.875L148.398 186.198L150.931 183.532C151.813 182.599 152.233 182.097 152.233 181.41C152.233 180.651 151.587 180.148 150.757 180.148C149.875 180.148 149.311 180.712 149.311 181.543H148.439C148.429 180.23 149.444 179.349 150.788 179.349C152.131 179.349 153.095 180.251 153.095 181.41C153.095 182.24 152.705 182.886 151.393 184.24L149.69 185.993V186.055H153.228V186.875H148.409ZM157.135 186.978C155.658 186.978 154.602 186.188 154.551 185.009H155.484C155.535 185.716 156.243 186.157 157.125 186.157C158.099 186.157 158.816 185.624 158.816 184.855C158.816 184.045 158.17 183.471 157.012 183.471H156.407V182.661H157.012C157.914 182.661 158.54 182.158 158.54 181.389C158.54 180.651 157.996 180.148 157.155 180.148C156.366 180.148 155.638 180.589 155.597 181.317H154.705C154.756 180.138 155.843 179.349 157.166 179.349C158.581 179.349 159.442 180.271 159.432 181.338C159.442 182.179 158.95 182.804 158.17 183.02V183.071C159.134 183.225 159.729 183.912 159.719 184.855C159.729 186.075 158.611 186.978 157.135 186.978ZM167.512 179.185C169.45 179.195 170.844 180.138 170.844 181.574C170.844 182.932 169.634 183.835 167.901 183.942V185.86H171.706V186.537H163.359V185.86H167.112V183.942C165.384 183.83 164.179 182.927 164.179 181.574C164.179 180.138 165.574 179.195 167.512 179.185ZM167.512 179.851C166.035 179.851 164.958 180.548 164.958 181.574C164.958 182.63 166.035 183.307 167.512 183.317C168.988 183.307 170.065 182.63 170.065 181.574C170.065 180.548 168.988 179.851 167.512 179.851ZM180.257 179.636V180.302H172.864V179.636H176.187V178.539H176.976V179.636H180.257ZM180.78 184.496V185.163H176.976V187.726H176.187V185.163H172.434V184.496H180.78ZM176.586 180.825C178.442 180.825 179.56 181.369 179.56 182.353C179.56 183.317 178.442 183.86 176.586 183.871C174.72 183.86 173.603 183.317 173.613 182.353C173.603 181.369 174.72 180.825 176.586 180.825ZM176.586 181.44C175.223 181.44 174.433 181.779 174.443 182.353C174.433 182.917 175.223 183.245 176.586 183.245C177.93 183.245 178.719 182.917 178.729 182.353C178.719 181.779 177.93 181.44 176.586 181.44ZM184.287 185.357V184.599L187.63 179.451H188.768V184.547H189.804V185.357H188.768V186.875H187.886V185.357H184.287ZM185.282 184.547H187.886V180.62H187.794L185.282 184.486V184.547ZM191.66 185.891C191.301 185.891 190.993 185.593 191.003 185.224C190.993 184.865 191.301 184.568 191.66 184.568C192.019 184.568 192.316 184.865 192.316 185.224C192.316 185.593 192.019 185.891 191.66 185.891ZM191.66 181.769C191.301 181.769 190.993 181.471 191.003 181.102C190.993 180.743 191.301 180.446 191.66 180.446C192.019 180.446 192.316 180.743 192.316 181.102C192.316 181.471 192.019 181.769 191.66 181.769ZM196.12 186.978C194.469 186.978 193.526 185.593 193.526 183.163C193.526 180.753 194.49 179.349 196.12 179.349C197.75 179.349 198.714 180.753 198.714 183.163C198.714 185.593 197.761 186.978 196.12 186.978ZM196.12 186.157C197.187 186.157 197.812 185.081 197.812 183.163C197.812 181.246 197.187 180.148 196.12 180.148C195.054 180.148 194.418 181.246 194.418 183.163C194.418 185.081 195.043 186.157 196.12 186.157ZM202.375 186.978C200.724 186.978 199.781 185.593 199.781 183.163C199.781 180.753 200.745 179.349 202.375 179.349C204.005 179.349 204.969 180.753 204.969 183.163C204.969 185.593 204.016 186.978 202.375 186.978ZM202.375 186.157C203.441 186.157 204.067 185.081 204.067 183.163C204.067 181.246 203.441 180.148 202.375 180.148C201.309 180.148 200.673 181.246 200.673 183.163C200.673 185.081 201.298 186.157 202.375 186.157Z" fill="#8D94A0"/>
<rect x="248.25" y="175.375" width="15" height="15" rx="7.5" fill="url(#paint1_linear_3019_26198)"/>
<path d="M258.415 180.801C258.084 180.802 257.814 180.533 257.814 180.202C257.813 179.871 258.081 179.602 258.412 179.601C258.744 179.601 259.013 179.869 259.014 180.2C259.014 180.531 258.746 180.8 258.415 180.801Z" fill="#FEFEFE"/>
<path fill-rule="evenodd" clip-rule="evenodd" d="M255.755 185.442C254.337 185.445 253.185 184.298 253.183 182.88C253.18 181.462 254.327 180.31 255.745 180.308C257.163 180.305 258.315 181.452 258.317 182.87C258.32 184.288 257.173 185.439 255.755 185.442ZM255.747 181.208C254.827 181.21 254.082 181.958 254.083 182.878C254.085 183.799 254.833 184.543 255.753 184.542C256.674 184.54 257.418 183.792 257.417 182.872C257.415 181.951 256.667 181.207 255.747 181.208Z" fill="#FEFEFE"/>
<path fill-rule="evenodd" clip-rule="evenodd" d="M252.466 178.144C252.784 178.02 253.147 177.935 253.679 177.91C254.213 177.884 254.383 177.878 255.74 177.876C257.098 177.873 257.269 177.878 257.802 177.902C258.334 177.925 258.698 178.009 259.016 178.132C259.345 178.259 259.624 178.429 259.903 178.707C260.181 178.984 260.352 179.263 260.481 179.591C260.605 179.909 260.69 180.272 260.715 180.804C260.741 181.338 260.747 181.508 260.749 182.865C260.752 184.223 260.747 184.393 260.723 184.927C260.7 185.459 260.616 185.823 260.493 186.141C260.366 186.47 260.196 186.749 259.918 187.027C259.641 187.306 259.363 187.477 259.034 187.606C258.716 187.73 258.353 187.815 257.821 187.841C257.288 187.866 257.117 187.872 255.759 187.874C254.402 187.877 254.232 187.872 253.698 187.848C253.166 187.825 252.803 187.741 252.485 187.618C252.155 187.491 251.876 187.321 251.598 187.043C251.319 186.766 251.148 186.487 251.019 186.159C250.895 185.841 250.81 185.478 250.785 184.946C250.759 184.413 250.753 184.242 250.751 182.885C250.748 181.527 250.753 181.357 250.777 180.823C250.8 180.291 250.884 179.928 251.007 179.609C251.134 179.28 251.304 179.001 251.582 178.723C251.859 178.444 252.138 178.273 252.466 178.144ZM252.809 186.778C252.985 186.846 253.25 186.927 253.738 186.948C254.265 186.971 254.423 186.976 255.758 186.974C257.093 186.971 257.251 186.966 257.778 186.941C258.265 186.918 258.53 186.836 258.706 186.767C258.939 186.676 259.105 186.567 259.28 186.392C259.455 186.216 259.563 186.05 259.653 185.816C259.721 185.64 259.802 185.375 259.823 184.887C259.846 184.36 259.851 184.202 259.849 182.867C259.846 181.532 259.841 181.374 259.816 180.847C259.793 180.36 259.711 180.095 259.642 179.919C259.551 179.685 259.442 179.52 259.267 179.345C259.091 179.17 258.925 179.062 258.691 178.972C258.515 178.904 258.25 178.823 257.763 178.802C257.235 178.779 257.077 178.774 255.742 178.777C254.407 178.779 254.249 178.784 253.722 178.809C253.235 178.833 252.97 178.914 252.794 178.983C252.561 179.074 252.395 179.183 252.22 179.358C252.045 179.534 251.937 179.7 251.847 179.934C251.779 180.11 251.698 180.375 251.677 180.862C251.654 181.39 251.649 181.548 251.652 182.883C251.654 184.218 251.66 184.376 251.684 184.903C251.707 185.39 251.79 185.655 251.858 185.831C251.949 186.064 252.058 186.231 252.233 186.405C252.409 186.58 252.575 186.688 252.809 186.778Z" fill="#FEFEFE"/>
<rect x="260.25" y="175.375" width="15" height="15" rx="7.5" fill="#0F1114"/>
<path d="M269.836 182.764C269.799 182.746 269.76 182.729 269.722 182.712C269.654 181.467 268.977 180.755 267.839 180.748C267.834 180.748 267.829 180.748 267.824 180.748C267.144 180.748 266.578 181.039 266.229 181.57L266.855 182C267.115 181.604 267.524 181.52 267.824 181.52C267.828 181.52 267.831 181.52 267.835 181.52C268.209 181.522 268.492 181.631 268.675 181.845C268.808 182 268.897 182.214 268.941 182.485C268.609 182.428 268.25 182.411 267.866 182.433C266.784 182.495 266.089 183.129 266.136 184.008C266.159 184.455 266.381 184.838 266.759 185.089C267.079 185.301 267.492 185.405 267.92 185.381C268.485 185.35 268.929 185.134 269.239 184.738C269.474 184.437 269.623 184.047 269.688 183.556C269.958 183.719 270.158 183.934 270.268 184.192C270.455 184.631 270.466 185.353 269.88 185.941C269.366 186.457 268.748 186.68 267.815 186.686C266.779 186.679 265.996 186.345 265.486 185.696C265.01 185.087 264.763 184.208 264.754 183.083C264.763 181.959 265.01 181.08 265.486 180.471C265.996 179.822 266.779 179.488 267.815 179.481C268.858 179.488 269.655 179.823 270.183 180.476C270.443 180.796 270.638 181.199 270.767 181.668L271.5 181.472C271.344 180.894 271.098 180.396 270.764 179.983C270.086 179.146 269.094 178.717 267.817 178.708H267.812C266.537 178.717 265.557 179.148 264.898 179.988C264.312 180.736 264.01 181.776 264 183.08L264 183.083L264 183.087C264.01 184.391 264.312 185.431 264.898 186.179C265.557 187.019 266.537 187.45 267.812 187.458H267.817C268.95 187.451 269.749 187.153 270.407 186.493C271.268 185.629 271.242 184.547 270.959 183.883C270.755 183.406 270.367 183.02 269.836 182.764ZM267.879 184.611C267.405 184.637 266.913 184.424 266.889 183.966C266.871 183.627 267.129 183.249 267.908 183.204C267.998 183.198 268.085 183.196 268.171 183.196C268.454 183.196 268.719 183.224 268.96 183.276C268.87 184.402 268.343 184.585 267.879 184.611Z" fill="#FEFEFE"/>
<g clip-path="url(#clip3_3019_26198)">
<rect x="272.25" y="175.375" width="15" height="15" rx="7.5" fill="#0866FF"/>
<path d="M282.379 185.582L282.764 183.472H280.525V182.726C280.525 181.612 280.959 181.183 282.083 181.183C282.432 181.183 282.713 181.191 282.875 181.209V179.297C282.568 179.211 281.819 179.125 281.385 179.125C279.094 179.125 278.039 180.214 278.039 182.563V183.472H276.625V185.582H278.039V190.172C278.569 190.304 279.123 190.375 279.694 190.375C279.976 190.375 280.253 190.358 280.525 190.324V185.582H282.379Z" fill="#FEFEFE"/>
</g>
<rect x="284.25" y="175.375" width="15" height="15" rx="7.5" fill="#0A66C2"/>
<rect x="285.813" y="176.938" width="11.875" height="11.875" rx="0.833333" fill="white"/>
<path d="M296.811 176.938H286.689C286.457 176.938 286.234 177.03 286.069 177.194C285.905 177.359 285.813 177.582 285.813 177.814V187.936C285.813 188.168 285.905 188.391 286.069 188.556C286.234 188.72 286.457 188.812 286.689 188.812H296.811C297.043 188.812 297.266 188.72 297.431 188.556C297.595 188.391 297.688 188.168 297.688 187.936V177.814C297.688 177.582 297.595 177.359 297.431 177.194C297.266 177.03 297.043 176.938 296.811 176.938ZM289.352 187.054H287.567V181.382H289.352V187.054ZM288.458 180.596C288.255 180.595 288.058 180.534 287.89 180.421C287.722 180.308 287.592 180.147 287.515 179.96C287.438 179.772 287.419 179.566 287.459 179.368C287.499 179.169 287.598 178.987 287.741 178.844C287.885 178.702 288.068 178.605 288.266 178.566C288.465 178.527 288.671 178.547 288.858 178.625C289.045 178.703 289.205 178.835 289.317 179.003C289.429 179.172 289.489 179.37 289.489 179.572C289.491 179.708 289.465 179.842 289.414 179.968C289.363 180.094 289.287 180.208 289.191 180.303C289.095 180.399 288.98 180.474 288.854 180.524C288.728 180.575 288.594 180.599 288.458 180.596ZM295.933 187.058H294.148V183.96C294.148 183.047 293.76 182.764 293.258 182.764C292.729 182.764 292.209 183.164 292.209 183.983V187.058H290.424V181.387H292.141V182.172H292.164C292.336 181.824 292.94 181.227 293.861 181.227C294.857 181.227 295.933 181.819 295.933 183.55L295.933 187.058Z" fill="#0A66C2"/>
</g>
<defs>
<filter id="filter0_d_3019_26198" x="-34.25" y="-14.75" width="362.5" height="178.75" filterUnits="userSpaceOnUse" color-interpolation-filters="sRGB">
<feFlood flood-opacity="0" result="BackgroundImageFix"/>
<feColorMatrix in="SourceAlpha" type="matrix" values="0 0 0 0 0 0 0 0 0 0 0 0 0 0 0 0 0 0 127 0" result="hardAlpha"/>
<feOffset/>
<feGaussianBlur stdDeviation="25"/>
<feComposite in2="hardAlpha" operator="out"/>
<feColorMatrix type="matrix" values="0 0 0 0 0.596078 0 0 0 0 0.654902 0 0 0 0 0.67451 0 0 0 0.15 0"/>
<feBlend mode="normal" in2="BackgroundImageFix" result="effect1_dropShadow_3019_26198"/>
<feBlend mode="normal" in="SourceGraphic" in2="effect1_dropShadow_3019_26198" result="shape"/>
</filter>
<filter id="filter1_d_3019_26198" x="11.25" y="88.5" width="337.5" height="153.75" filterUnits="userSpaceOnUse" color-interpolation-filters="sRGB">
<feFlood flood-opacity="0" result="BackgroundImageFix"/>
<feColorMatrix in="SourceAlpha" type="matrix" values="0 0 0 0 0 0 0 0 0 0 0 0 0 0 0 0 0 0 127 0" result="hardAlpha"/>
<feOffset/>
<feGaussianBlur stdDeviation="18.75"/>
<feComposite in2="hardAlpha" operator="out"/>
<feColorMatrix type="matrix" values="0 0 0 0 0.596078 0 0 0 0 0.654902 0 0 0 0 0.67451 0 0 0 0.15 0"/>
<feBlend mode="normal" in2="BackgroundImageFix" result="effect1_dropShadow_3019_26198"/>
<feBlend mode="normal" in="SourceGraphic" in2="effect1_dropShadow_3019_26198" result="shape"/>
</filter>
<linearGradient id="paint0_linear_3019_26198" x1="232.25" y1="84.625" x2="234.75" y2="99.625" gradientUnits="userSpaceOnUse">
<stop stop-color="#7B31F8"/>
<stop offset="0.337616" stop-color="#B504EE"/>
<stop offset="0.567302" stop-color="#F80873"/>
<stop offset="1" stop-color="#FED103"/>
</linearGradient>
<linearGradient id="paint1_linear_3019_26198" x1="253.25" y1="175.375" x2="255.75" y2="190.375" gradientUnits="userSpaceOnUse">
<stop stop-color="#7B31F8"/>
<stop offset="0.337616" stop-color="#B504EE"/>
<stop offset="0.567302" stop-color="#F80873"/>
<stop offset="1" stop-color="#FED103"/>
</linearGradient>
<clipPath id="clip0_3019_26198">
<rect width="15" height="15" fill="white" transform="translate(27.75 84.625)"/>
</clipPath>
<clipPath id="clip1_3019_26198">
<rect x="251.25" y="84.625" width="15" height="15" rx="7.5" fill="white"/>
</clipPath>
<clipPath id="clip2_3019_26198">
<rect width="15" height="15" fill="white" transform="translate(60.75 175.375)"/>
</clipPath>
<clipPath id="clip3_3019_26198">
<rect x="272.25" y="175.375" width="15" height="15" rx="7.5" fill="white"/>
</clipPath>
</defs>
</svg>
